<svg xmlns="http://www.w3.org/2000/svg" width="100" height="100" viewBox="0 0 100 100"><g fill="none" fill-rule="evenodd"><path fill="#09BB07" d="M100,50.617284 C100,22.3851852 77.6148148,0 49.382716,0 C22.3851852,0 0,22.3851852 0,50.617284 C0,77.6148148 22.3851852,100 49.382716,100 C77.6148148,100 100,77.6148148 100,50.617284 Z"/><path fill="#FFF" d="M25.5048857,53.62654 C25.1221205,53.2303969 25.0787809,52.5460217 25.4041887,52.1032457 L27.1121642,49.7792362 C27.439316,49.334087 28.0566853,49.2431331 28.4907667,49.5758315 L41.1646939,59.2896699 C41.5989232,59.6224817 42.2926306,59.6076195 42.7118394,59.2583847 L74.6139031,32.6813854 C75.0341386,32.3312952 75.6954284,32.3641359 76.0898557,32.7536709 L77.5524549,34.1981291 C77.9473655,34.5881415 77.9535357,35.2133004 77.5583296,35.6022423 L42.6590452,69.9483511 C42.2673791,70.3338091 41.6377784,70.3232841 41.2568132,69.929004 L25.5048857,53.62654 Z"/></g></svg>