<svg xmlns="http://www.w3.org/2000/svg" width="40" height="60" viewBox="0 0 40 60"><g fill="none" fill-rule="evenodd"><polygon fill="#FFF" points="4 2 4 18 18 10.02325"/><g fill="#FFF" transform="translate(24 3)"><polygon points="0 0 0 14 4 14 4 0"/><polygon points="8 0 8 14 12 14 12 0"/></g><g transform="translate(0 21)"><polygon fill="#FFF" points="0 6 0 12 4 12 9 18 10 18 10 0 9 0 4 6"/><path stroke="#FFF" stroke-linecap="round" stroke-width="2" d="M15.0285509 16.4652606C17.4244955 14.8481955 19 12.1080871 19 9 19 5.88576146 17.418253 3.14095974 15.0143154 1.52515131M13.005024 12.9965876C14.2166128 12.0841521 15 10.633561 15 9 15 7.37995588 14.2295234 5.93986622 13.0350117 5.02617258"/></g><polygon fill="#FFF" points="0 6 0 12 4 12 9 18 10 18 10 0 9 0 4 6" transform="translate(20 21)"/><g stroke="#FFF" stroke-width="2" transform="translate(3 43)"><polyline points="5 0 0 0 0 5"/><polyline points="9 0 14 0 14 5"/><polyline points="14 9 14 14 9 14"/><polyline points="5 14 0 14 0 9"/></g><g stroke="#FFF" stroke-width="2" transform="translate(22 42)"><polyline points="0 5 5 5 5 0"/><polyline points="11 0 11 5 16 5"/><polyline points="0 11 5 11 5 16"/><polyline points="16 11 11 11 11 16"/></g><path stroke="#FFF" stroke-linecap="round" stroke-width="2" d="M32.8786797 32.1213203L37.1213203 27.8786797M32.8786797 27.8786797L37.1213203 32.1213203"/></g></svg>