<svg xmlns="http://www.w3.org/2000/svg" width="120" height="120" viewBox="0 0 120 120"><g fill="none"><path fill="#FFF" d="M11.2499985,6.4248 C11.2495,5.9638 11.3704,5.5107 11.6006,5.1113 C11.8308,4.7118 12.1621,4.38 12.5612,4.1493 C12.9604,3.9186 13.4132,3.79689975 13.8743,3.79689975 C14.3353,3.79689975 14.7882,3.918 15.1875,4.1486 L56.025,27.7286 C56.424,27.9591 56.755,28.29 56.985,28.689 C57.215,29.088 57.336,29.541 57.336,30.001 C57.336,30.462 57.215,30.914 56.985,31.313 C56.755,31.712 56.424,32.043 56.025,32.274 L15.1875,55.854 C14.7885,56.084 14.3359,56.205 13.8752,56.205 C13.4145,56.205 12.9619,56.084 12.5629,55.854 C12.1638,55.623 11.8324,55.292 11.602,54.893 C11.3715,54.494 11.2499985,54.042 11.2499985,53.581 L11.2499985,6.4248 Z"/><path fill="#FF4800" d="M11.2499985,66.4248 C11.2495,65.9638 11.3704,65.5107 11.6006,65.1113 C11.8308,64.7118 12.1621,64.38 12.5612,64.1493 C12.9604,63.9186 13.4132,63.7968998 13.8743,63.7968998 C14.3353,63.7968998 14.7882,63.918 15.1875,64.1486 L56.025,87.7286 C56.424,87.9591 56.755,88.29 56.985,88.689 C57.215,89.088 57.336,89.541 57.336,90.001 C57.336,90.462 57.215,90.914 56.985,91.313 C56.755,91.712 56.424,92.043 56.025,92.274 L15.1875,115.854 C14.7885,116.084 14.3359,116.205 13.8752,116.205 C13.4145,116.205 12.9619,116.084 12.5629,115.854 C12.1638,115.623 11.8324,115.292 11.602,114.893 C11.3715,114.494 11.2499985,114.042 11.2499985,113.581 L11.2499985,66.4248 Z"/><path fill="#FFF" d="M70.125,3.75 C69.4288,3.75 68.7611,4.027 68.2688,4.519 C67.7766,5.011 67.5,5.679 67.5,6.375 L67.5,53.625 C67.5,54.321 67.7766,54.989 68.2688,55.481 C68.7611,55.973 69.4288,56.25 70.125,56.25 L79.875,56.25 C80.5712,56.25 81.2389,55.973 81.7312,55.481 C82.2234,54.989 82.5,54.321 82.5,53.625 L82.5,6.375 C82.5,5.679 82.2234,5.011 81.7312,4.519 C81.2389,4.027 80.5712,3.75 79.875,3.75 L70.125,3.75 Z M100.125,3.75 C99.429,3.75 98.761,4.027 98.269,4.519 C97.777,5.011 97.5,5.679 97.5,6.375 L97.5,53.625 C97.5,54.321 97.777,54.989 98.269,55.481 C98.761,55.973 99.429,56.25 100.125,56.25 L109.875,56.25 C110.571,56.25 111.239,55.973 111.731,55.481 C112.223,54.989 112.5,54.321 112.5,53.625 L112.5,6.375 C112.5,5.679 112.223,5.011 111.731,4.519 C111.239,4.027 110.571,3.75 109.875,3.75 L100.125,3.75 Z"/><path fill="#FF4800" d="M70.125,63.75 C69.4288,63.75 68.7611,64.027 68.2688,64.519 C67.7766,65.011 67.5,65.679 67.5,66.375 L67.5,113.625 C67.5,114.321 67.7766,114.989 68.2688,115.481 C68.7611,115.973 69.4288,116.25 70.125,116.25 L79.875,116.25 C80.5712,116.25 81.2389,115.973 81.7312,115.481 C82.2234,114.989 82.5,114.321 82.5,113.625 L82.5,66.375 C82.5,65.679 82.2234,65.011 81.7312,64.519 C81.2389,64.027 80.5712,63.75 79.875,63.75 L70.125,63.75 Z M100.125,63.75 C99.429,63.75 98.761,64.027 98.269,64.519 C97.777,65.011 97.5,65.679 97.5,66.375 L97.5,113.625 C97.5,114.321 97.777,114.989 98.269,115.481 C98.761,115.973 99.429,116.25 100.125,116.25 L109.875,116.25 C110.571,116.25 111.239,115.973 111.731,115.481 C112.223,114.989 112.5,114.321 112.5,113.625 L112.5,66.375 C112.5,65.679 112.223,65.011 111.731,64.519 C111.239,64.027 110.571,63.75 109.875,63.75 L100.125,63.75 Z"/></g></svg>