<svg xmlns="http://www.w3.org/2000/svg" width="80" height="1280" viewBox="0 0 80 1280"><g fill="none" fill-rule="evenodd"><path stroke="#FF4800" stroke-linejoin="round" stroke-width="5" d="M6.66406,23.3333 C6.66406,21.4923 8.15645,20 9.9974,20 L69.9974,20 C71.8384,20 73.3307,21.4923 73.3307,23.3333 L73.3307,66.6667 C73.3307,68.5077 71.8384,70 69.9974,70 L9.9974,70 C8.15645,70 6.66406,68.5077 6.66406,66.6667 L6.66406,23.3333 Z"/><polyline stroke="#FF4800" stroke-linecap="round" stroke-linejoin="round" stroke-width="5" points="31.664 31.664 39.997 39.997 48.331 31.664"/><line x1="30" x2="50" y1="41.664" y2="41.664" stroke="#FF4800" stroke-linecap="round" stroke-linejoin="round" stroke-width="5"/><line x1="30" x2="50" y1="51.664" y2="51.664" stroke="#FF4800" stroke-linecap="round" stroke-linejoin="round" stroke-width="5"/><line x1="40" x2="40" y1="41.664" y2="58.331" stroke="#FF4800" stroke-linecap="round" stroke-linejoin="round" stroke-width="5"/><line x1="13.336" x2="66.669" y1="10" y2="10" stroke="#FF4800" stroke-linecap="round" stroke-linejoin="round" stroke-width="5"/><path stroke="#FF4800" stroke-linecap="round" stroke-linejoin="round" stroke-width="5" d="M73.3307,119.997 C73.3307,138.407 58.4069,153.331 39.9974,153.331 C21.5879,153.331 6.66406,138.407 6.66406,119.997 C6.66406,101.588 21.5879,86.6641 39.9974,86.6641 L39.9974,119.997 L73.3307,119.997 Z"/><path stroke="#FF4800" stroke-linecap="round" stroke-linejoin="round" stroke-width="5" d="M71.8073 110.001 50 110.001 50 88.1934C60.367 91.4494 68.5513 99.6338 71.8073 110.001ZM40.0026 193.335C46.4459 193.335 51.6693 188.112 51.6693 181.669 51.6693 175.225 46.4459 170.002 40.0026 170.002 33.5593 170.002 28.3359 175.225 28.3359 181.669 28.3359 188.112 33.5593 193.335 40.0026 193.335ZM10.002 228.001 10.002 230.001 70.002 230.001 70.002 228.001C70.002 220.534 70.002 216.8 68.5488 213.948 67.2705 211.439 65.2306 209.399 62.7218 208.121 59.8696 206.668 56.136 206.668 48.6686 206.668L31.3353 206.668C23.868 206.668 20.1343 206.668 17.2821 208.121 14.7733 209.399 12.7335 211.439 11.4552 213.948 10.002 216.8 10.002 220.534 10.002 228.001Z"/><path stroke="#FF4800" stroke-linecap="round" stroke-width="5" d="M40.0012,280.302 L40.0012,280.002 M69.8771,309.877 C63.5581,316.196 45.0599,307.943 28.5603,291.443 C12.0606,274.944 3.80758,256.446 10.1266,250.127 C16.4456,243.808 34.9438,252.061 51.4434,268.56 C67.9431,285.06 76.1961,303.558 69.8771,309.877 Z M10.1272,309.877 C3.80822,303.558 12.0613,285.06 28.5609,268.56 C45.0606,252.061 63.5587,243.808 69.8778,250.127 C76.1968,256.446 67.9437,274.944 51.4441,291.444 C34.9444,307.943 16.4462,316.196 10.1272,309.877 Z"/><path stroke="#FF4800" stroke-linejoin="round" stroke-width="5" d="M18.3359,355 L18.3359,380.065 C18.3359,381.077 18.7933,382.031 19.6446,382.58 C22.4798,384.405 29.7683,388.333 40.0026,388.333 C50.2369,388.333 57.5254,384.405 60.3606,382.58 C61.2119,382.031 61.6693,381.077 61.6693,380.065 L61.6693,355"/><line x1="71.664" x2="71.664" y1="360" y2="373.333" stroke="#FF4800" stroke-linecap="round" stroke-linejoin="round" stroke-width="5"/><polygon stroke="#FF4800" stroke-linecap="round" stroke-linejoin="round" stroke-width="5" points="8.336 348.331 40.003 331.664 71.669 348.331 40.003 364.997"/><line x1="6.664" x2="73.331" y1="470" y2="470" stroke="#FF4800" stroke-linecap="round" stroke-linejoin="round" stroke-width="5"/><path stroke="#FF4800" stroke-linejoin="round" stroke-width="5" d="M30.0026 436.664 16.6693 436.664C14.8283 436.664 13.3359 438.156 13.3359 439.997L13.3359 466.664C13.3359 468.505 14.8283 469.997 16.6693 469.997L30.0026 469.997C31.8436 469.997 33.3359 468.505 33.3359 466.664L33.3359 439.997C33.3359 438.156 31.8436 436.664 30.0026 436.664ZM63.3359 406.664 36.6693 406.664C34.8283 406.664 33.3359 408.156 33.3359 409.997L33.3359 466.664C33.3359 468.505 34.8283 469.997 36.6693 469.997L63.3359 469.997C65.1769 469.997 66.6693 468.505 66.6693 466.664L66.6693 409.997C66.6693 408.156 65.1769 406.664 63.3359 406.664Z"/><line x1="46.664" x2="53.331" y1="453.348" y2="453.348" stroke="#FF4800" stroke-linecap="round" stroke-linejoin="round" stroke-width="5"/><line x1="20" x2="26.667" y1="453.348" y2="453.348" stroke="#FF4800" stroke-linecap="round" stroke-linejoin="round" stroke-width="5"/><line x1="46.664" x2="53.331" y1="438.348" y2="438.348" stroke="#FF4800" stroke-linecap="round" stroke-linejoin="round" stroke-width="5"/><line x1="46.664" x2="53.331" y1="423.348" y2="423.348" stroke="#FF4800" stroke-linecap="round" stroke-linejoin="round" stroke-width="5"/><path stroke="#FF4800" stroke-linejoin="round" stroke-width="5" d="M10,493.759 L40.0143,485 L70,493.759 L70,511.723 C70,530.604 57.917,547.366 40.0043,553.334 C22.0868,547.366 10,530.6 10,511.715 L10,493.759 Z"/><line x1="39.918" x2="39.918" y1="504.918" y2="531.585" stroke="#FF4800" stroke-linecap="round" stroke-linejoin="round" stroke-width="5"/><line x1="26.582" x2="53.249" y1="518.25" y2="518.25" stroke="#FF4800" stroke-linecap="round" stroke-linejoin="round" stroke-width="5"/><polygon stroke="#FF4800" stroke-linejoin="round" stroke-width="5" points="55.003 568.334 8.336 568.334 8.336 631.667 55.003 631.667"/><polyline stroke="#FF4800" stroke-linecap="round" stroke-linejoin="round" stroke-width="5" points="55 595 71.667 595 71.667 631.667 55 631.667"/><line x1="21.664" x2="41.664" y1="595" y2="595" stroke="#FF4800" stroke-linecap="round" stroke-width="5"/><line x1="31.664" x2="31.664" y1="585" y2="605" stroke="#FF4800" stroke-linecap="round" stroke-width="5"/><path stroke="#FF4800" stroke-linecap="round" stroke-linejoin="round" stroke-width="5" d="M61.6693,687.32 L61.6693,699.011 C61.6693,705.08 56.8168,710 50.8309,710 C44.8449,710 39.9924,705.08 39.9924,699.011 L40.0128,661.905 C40.0128,655.33 35.1603,650 29.1743,650 C23.1884,650 18.3359,655.33 18.3359,661.905 L18.3359,687.32"/><polyline stroke="#FF4800" stroke-linecap="round" stroke-linejoin="round" stroke-width="5" points="71.664 691.664 61.664 681.664 51.664 691.664"/><path stroke="#FF4800" stroke-linecap="round" stroke-linejoin="round" stroke-width="5" d="M71.6641 657.881C71.6641 665.306 61.6641 671.669 61.6641 671.669 61.6641 671.669 51.6641 665.306 51.6641 657.881 51.6641 655.35 52.7176 652.922 54.5931 651.132 56.4684 649.342 59.0119 648.336 61.6641 648.336 64.3162 648.336 66.8597 649.342 68.7351 651.132 70.6106 652.922 71.6641 655.35 71.6641 657.881ZM28.3359 697.881C28.3359 705.306 18.3359 711.669 18.3359 711.669 18.3359 711.669 8.33594 705.306 8.33594 697.881 8.33594 695.35 9.3895 692.922 11.2649 691.132 13.1402 689.342 15.6838 688.336 18.3359 688.336 20.9881 688.336 23.5316 689.342 25.4069 691.132 27.2824 692.922 28.3359 695.35 28.3359 697.881Z"/><path fill="#FF4800" fill-rule="nonzero" d="M61.6693 661.667C63.5102 661.667 65.0026 660.174 65.0026 658.333 65.0026 656.492 63.5102 655 61.6693 655 59.8283 655 58.3359 656.492 58.3359 658.333 58.3359 660.174 59.8283 661.667 61.6693 661.667ZM18.3333 701.667C20.1743 701.667 21.6667 700.174 21.6667 698.333 21.6667 696.492 20.1743 695 18.3333 695 16.4924 695 15 696.492 15 698.333 15 700.174 16.4924 701.667 18.3333 701.667Z"/><path stroke="#FF4800" stroke-linejoin="round" stroke-width="5" d="M20.0026 784.997C23.6844 784.997 26.6693 782.013 26.6693 778.331 26.6693 774.649 23.6844 771.664 20.0026 771.664 16.3207 771.664 13.3359 774.649 13.3359 778.331 13.3359 782.013 16.3207 784.997 20.0026 784.997ZM58.3307 784.997C62.0126 784.997 64.9974 782.013 64.9974 778.331 64.9974 774.649 62.0126 771.664 58.3307 771.664 54.6489 771.664 51.6641 774.649 51.6641 778.331 51.6641 782.013 54.6489 784.997 58.3307 784.997Z"/><polyline stroke="#FF4800" stroke-linecap="round" stroke-linejoin="round" stroke-width="5" points="13.336 778.336 3.336 778.336 3.336 738.336 51.669 738.336 51.669 778.336 26.669 778.336"/><polyline stroke="#FF4800" stroke-linecap="round" stroke-linejoin="round" stroke-width="5" points="51.664 778.333 51.664 750 65.95 750 76.664 764.167 76.664 778.333 66.349 778.333"/><line x1="10" x2="70" y1="870" y2="870" stroke="#FF4800" stroke-linecap="round" stroke-width="5"/><line x1="10" x2="70" y1="860" y2="860" stroke="#FF4800" stroke-linecap="round" stroke-width="5"/><path stroke="#FF4800" stroke-linecap="round" stroke-linejoin="round" stroke-width="5" d="M15,841.664 C15,827.857 26.1928,816.664 40,816.664 C53.8072,816.664 65,827.857 65,841.664 L65,859.997 L15,859.997 L15,841.664 Z"/><line x1="28.336" x2="28.336" y1="841.664" y2="848.331" stroke="#FF4800" stroke-linecap="round" stroke-width="5"/><path stroke="#FF4800" stroke-width="5" d="M46.6693 816.664 46.6693 813.331C46.6693 809.649 43.6844 806.664 40.0026 806.664 36.3208 806.664 33.3359 809.649 33.3359 813.331L33.3359 816.664M54.9974 911.664C51.6641 903.331 54.9974 886.664 39.9974 886.664 24.9974 886.664 28.3307 903.331 24.9974 909.997 21.6641 916.664 16.6641 921.664 16.6641 931.664 16.6641 946.664 29.1641 953.331 39.9974 953.331 50.8307 953.331 63.3307 946.664 63.3307 931.664 63.3307 923.331 58.3307 919.997 54.9974 911.664Z"/><path stroke="#FF4800" stroke-width="5" d="M50,930 C50,935.523 45.5228,940 40,940 C34.4772,940 30,935.523 30,930 C30,924.477 34.4772,917.5 40,917.5 C45.5228,917.5 50,924.477 50,930 Z"/><path stroke="#FF4800" stroke-linecap="round" stroke-linejoin="round" stroke-width="5" d="M23.3333 1016.67C27.9357 1016.67 31.6667 1012.94 31.6667 1008.33 31.6667 1003.73 27.9357 1000 23.3333 1000 18.731 1000 15 1003.73 15 1008.33 15 1012.94 18.731 1016.67 23.3333 1016.67ZM56.6693 1016.67C61.2716 1016.67 65.0026 1012.94 65.0026 1008.33 65.0026 1003.73 61.2716 1000 56.6693 1000 52.0669 1000 48.3359 1003.73 48.3359 1008.33 48.3359 1012.94 52.0669 1016.67 56.6693 1016.67ZM39.9974 983.331C44.5998 983.331 48.3307 979.6 48.3307 974.997 48.3307 970.395 44.5998 966.664 39.9974 966.664 35.395 966.664 31.6641 970.395 31.6641 974.997 31.6641 979.6 35.395 983.331 39.9974 983.331Z"/><path stroke="#FF4800" stroke-linecap="round" stroke-linejoin="round" stroke-width="5" d="M39.9974 1033.33C39.9974 1024.13 32.5354 1016.66 23.3307 1016.66 14.126 1016.66 6.66406 1024.13 6.66406 1033.33M73.3333 1033.33C73.3333 1024.13 65.8713 1016.66 56.6667 1016.66 47.462 1016.66 40 1024.13 40 1033.33M56.6693 1000C56.6693 990.798 49.2073 983.336 40.0026 983.336 30.7979 983.336 23.3359 990.798 23.3359 1000"/><path stroke="#FF4800" stroke-linejoin="round" stroke-width="5" d="M39.9974,1113.33 C58.4069,1113.33 73.3307,1098.41 73.3307,1080 C73.3307,1061.59 58.4069,1046.66 39.9974,1046.66 C21.5879,1046.66 6.66406,1061.59 6.66406,1080 C6.66406,1098.41 21.5879,1113.33 39.9974,1113.33 Z"/><polyline stroke="#FF4800" stroke-linecap="round" stroke-linejoin="round" stroke-width="5" points="40.014 1060 40.012 1080.01 54.144 1094.15"/><path stroke="#FF4800" stroke-linecap="round" stroke-linejoin="round" stroke-width="5" d="M69.9974,1133.34 L9.9974,1133.34 C8.15645,1133.34 6.66406,1134.83 6.66406,1136.67 L6.66406,1190 C6.66406,1191.84 8.15645,1193.34 9.9974,1193.34 L69.9974,1193.34 C71.8383,1193.34 73.3307,1191.84 73.3307,1190 L73.3307,1136.67 C73.3307,1134.83 71.8383,1133.34 69.9974,1133.34 Z"/><line x1="6.664" x2="73.331" y1="1153.34" y2="1153.34" stroke="#FF4800" stroke-linecap="round" stroke-linejoin="round" stroke-width="5"/><line x1="6.664" x2="73.331" y1="1173.34" y2="1173.34" stroke="#FF4800" stroke-linecap="round" stroke-linejoin="round" stroke-width="5"/><line x1="28.336" x2="28.336" y1="1126.66" y2="1140" stroke="#FF4800" stroke-linecap="round" stroke-linejoin="round" stroke-width="5"/><line x1="51.664" x2="51.664" y1="1126.66" y2="1140" stroke="#FF4800" stroke-linecap="round" stroke-linejoin="round" stroke-width="5"/><line x1="28.336" x2="28.336" y1="1153.34" y2="1193.34" stroke="#FF4800" stroke-linecap="round" stroke-linejoin="round" stroke-width="5"/><line x1="51.664" x2="51.664" y1="1153.34" y2="1193.34" stroke="#FF4800" stroke-linecap="round" stroke-linejoin="round" stroke-width="5"/><line x1="73.336" x2="73.336" y1="1141.66" y2="1185" stroke="#FF4800" stroke-linecap="round" stroke-linejoin="round" stroke-width="5"/><line x1="6.664" x2="6.664" y1="1141.66" y2="1185" stroke="#FF4800" stroke-linecap="round" stroke-linejoin="round" stroke-width="5"/><line x1="23.336" x2="56.669" y1="1193.34" y2="1193.34" stroke="#FF4800" stroke-linecap="round" stroke-linejoin="round" stroke-width="5"/><path stroke="#FF4800" stroke-width="5" d="M39.9974,1273.33 C58.4069,1273.33 73.3307,1258.41 73.3307,1240 C73.3307,1221.59 58.4069,1206.66 39.9974,1206.66 C21.5879,1206.66 6.66406,1221.59 6.66406,1240 C6.66406,1258.41 21.5879,1273.33 39.9974,1273.33 Z"/><path stroke="#FF4800" stroke-linecap="round" stroke-linejoin="round" stroke-width="5" d="M39.9974,1206.66 C39.8292,1217.78 37.1006,1226.11 31.8114,1231.67 C26.5221,1237.23 18.1396,1240.01 6.66406,1240.01"/><path stroke="#FF4800" stroke-linecap="round" stroke-width="5" d="M73.2803,1241.67 C62.4261,1240.93 54.1325,1243.25 48.3991,1248.63 C42.6656,1254.02 39.8676,1262.25 40.0048,1273.33"/></g></svg>