<svg xmlns="http://www.w3.org/2000/svg" width="20" height="40" viewBox="0 0 20 40"><g fill="none" fill-rule="evenodd" stroke-linecap="round" stroke-linejoin="round" stroke-width="1.8"><path stroke="#FF4800" d="M2,33.2044 L2,36.8925 C2,37.4514 2.21071,37.9875 2.58579,38.3827 C2.96086,38.778 3.46957,39 4,39 L16,39 C16.5304,39 17.0391,38.778 17.4142,38.3827 C17.7893,37.9875 18,37.4514 18,36.8925 L18,33.2044 M10.0007,32.9425 L10.0007,21 M10.0007,21 L5.42931,25.56318 M10.0007,21 L14.5722,25.56318"/><path stroke="#0B0A0A" d="M2,13.2044 L2,16.8925 C2,17.4514 2.21071,17.9875 2.58579,18.3827 C2.96086,18.778 3.46957,19 4,19 L16,19 C16.5304,19 17.0391,18.778 17.4142,18.3827 C17.7893,17.9875 18,17.4514 18,16.8925 L18,13.2044 M10.0007,12.9425 L10.0007,1 M10.0007,1 L5.42931,5.56318 M10.0007,1 L14.5722,5.56318"/></g></svg>