<svg xmlns="http://www.w3.org/2000/svg" width="20" height="40" viewBox="0 0 20 40"><g fill="none"><path fill="#0B0A0A" d="M14.4578543,5.10391 C12.9859543,3.63203 10.5890543,3.63203 9.11876427,5.10391 L5.04064427,9.1789 C5.01408427,9.2055 5,9.2414 5,9.2789 C5,9.3164 5.01408427,9.3523 5.04064427,9.3789 L5.61720427,9.9555 C5.64356427,9.9817 5.67923427,9.9964 5.71642427,9.9964 C5.75361427,9.9964 5.78929427,9.9817 5.81564427,9.9555 L9.89375427,5.88047 C10.4000543,5.37422 11.0734543,5.0961 11.7890543,5.0961 C12.5047543,5.0961 13.1781543,5.37422 13.6828543,5.88047 C14.1890543,6.38672 14.4672543,7.06016 14.4672543,7.77422 C14.4672543,8.4898 14.1890543,9.1617 13.6828543,9.668 L9.52655427,13.8227 L8.85314427,14.4961 C8.22345427,15.1258 7.20001427,15.1258 6.57033427,14.4961 C6.26564427,14.1914 6.09845427,13.7867 6.09845427,13.3555 C6.09845427,12.9242 6.26564427,12.5195 6.57033427,12.2148 L10.6937543,8.093 C10.7984543,7.98985 10.9359543,7.93203 11.0828543,7.93203 L11.0843543,7.93203 C11.2312543,7.93203 11.3672543,7.98985 11.4703543,8.093 C11.5750543,8.1977 11.6312543,8.3352 11.6312543,8.482 C11.6312543,8.6273 11.5734543,8.7648 11.4703543,8.868 L8.10001427,12.2352 C8.07345427,12.2617 8.05939427,12.2977 8.05939427,12.3352 C8.05939427,12.3727 8.07345427,12.4086 8.10001427,12.4352 L8.67658427,13.0117 C8.70293427,13.038 8.73861427,13.0527 8.77580427,13.0527 C8.81299427,13.0527 8.84866427,13.038 8.87502427,13.0117 L12.2437543,9.643 C12.5547543,9.332 12.7250543,8.9195 12.7250543,8.4805 C12.7250543,8.0414 12.5531543,7.62735 12.2437543,7.31797 C11.6015543,6.67578 10.5578543,6.67735 9.91565427,7.31797 L9.51565427,7.71953 L5.79376427,11.4398 C5.54116427,11.691 5.34092427,11.9898 5.20466427,12.3189 C5.06841427,12.648 4.99885427,13.0008 5,13.357 C5,14.0805 5.28283427,14.7602 5.79376427,15.2711 C6.32345427,15.7992 7.01720427,16.0633 7.71095427,16.0633 C8.40470427,16.0633 9.09845427,15.7992 9.62655427,15.2711 L14.4578543,10.443 C15.1687543,9.7305 15.5625585,8.782 15.5625585,7.77422 C15.5640543,6.76485 15.1703543,5.81641 14.4578543,5.10391 Z"/><path fill="#FF4800" d="M14.4578543,25.10391 C12.9859543,23.63203 10.5890543,23.63203 9.11876427,25.10391 L5.04064427,29.1789 C5.01408427,29.2055 5,29.2414 5,29.2789 C5,29.3164 5.01408427,29.3523 5.04064427,29.3789 L5.61720427,29.9555 C5.64356427,29.9817 5.67923427,29.9964 5.71642427,29.9964 C5.75361427,29.9964 5.78929427,29.9817 5.81564427,29.9555 L9.89375427,25.88047 C10.4000543,25.37422 11.0734543,25.0961 11.7890543,25.0961 C12.5047543,25.0961 13.1781543,25.37422 13.6828543,25.88047 C14.1890543,26.38672 14.4672543,27.06016 14.4672543,27.77422 C14.4672543,28.4898 14.1890543,29.1617 13.6828543,29.668 L9.52655427,33.8227 L8.85314427,34.4961 C8.22345427,35.1258 7.20001427,35.1258 6.57033427,34.4961 C6.26564427,34.1914 6.09845427,33.7867 6.09845427,33.3555 C6.09845427,32.9242 6.26564427,32.5195 6.57033427,32.2148 L10.6937543,28.093 C10.7984543,27.98985 10.9359543,27.93203 11.0828543,27.93203 L11.0843543,27.93203 C11.2312543,27.93203 11.3672543,27.98985 11.4703543,28.093 C11.5750543,28.1977 11.6312543,28.3352 11.6312543,28.482 C11.6312543,28.6273 11.5734543,28.7648 11.4703543,28.868 L8.10001427,32.2352 C8.07345427,32.2617 8.05939427,32.2977 8.05939427,32.3352 C8.05939427,32.3727 8.07345427,32.4086 8.10001427,32.4352 L8.67658427,33.0117 C8.70293427,33.038 8.73861427,33.0527 8.77580427,33.0527 C8.81299427,33.0527 8.84866427,33.038 8.87502427,33.0117 L12.2437543,29.643 C12.5547543,29.332 12.7250543,28.9195 12.7250543,28.4805 C12.7250543,28.0414 12.5531543,27.62735 12.2437543,27.31797 C11.6015543,26.67578 10.5578543,26.67735 9.91565427,27.31797 L9.51565427,27.71953 L5.79376427,31.4398 C5.54116427,31.691 5.34092427,31.9898 5.20466427,32.3189 C5.06841427,32.648 4.99885427,33.0008 5,33.357 C5,34.0805 5.28283427,34.7602 5.79376427,35.2711 C6.32345427,35.7992 7.01720427,36.0633 7.71095427,36.0633 C8.40470427,36.0633 9.09845427,35.7992 9.62655427,35.2711 L14.4578543,30.443 C15.1687543,29.7305 15.5625585,28.782 15.5625585,27.77422 C15.5640543,26.76485 15.1703543,25.81641 14.4578543,25.10391 Z"/></g></svg>