<svg xmlns="http://www.w3.org/2000/svg" width="116" height="58" viewBox="0 0 116 58"><g fill="#060101" fill-rule="evenodd" transform="translate(.5 .434)"><path d="M54.5809162 4.12620252C56.0385748 5.13411469 57.4757645 6.17579608 58.8928828 7.25144535L57.6053341 8.9468593C56.2158388 7.83028967 54.7919637 6.76834674 53.3343052 5.76023592L54.5809162 4.12620252ZM58.9540906 1.28680627 58.9540906 5.31090653 56.808441 5.31090653 56.808441 3.45200979 49.5129942 3.45200979 49.5129942 5.29044635 47.3673447 5.29044635 47.3673447 1.28680627 58.9540906 1.28680627ZM51.1886556 4.18758306 52.700964 5.65813367C51.4064598 6.96540012 50.0102078 8.14354893 48.5116116 9.19198418L47.2854694 7.45564987C48.7161011 6.52997571 50.0169645 5.4406201 51.1886556 4.18758306L51.1886556 4.18758306ZM49.0839438 13.685874C49.8329438 13.0867682 50.5006647 12.4058216 51.0865102 11.6430343L47.2447304 11.6430343 47.2447304 9.49829095 51.8834033 9.49829095 51.8834033 7.55795077 54.0904593 7.55795077 54.0904593 9.49829095 58.9745594 9.49829095 58.9745594 11.6430343 54.785207 11.6430343C55.3710526 12.4058216 56.0320168 13.0867682 56.7675034 13.685874 57.734705 14.462169 58.7770253 15.1294092 59.8942654 15.6877934L58.5453103 17.7914177C56.8289099 16.7564901 55.3438271 15.4627314 54.0904593 13.9105387L54.0904593 18.5472525 51.8834033 18.5472525 51.8834033 13.8288966C51.3112699 14.5505649 50.6912433 15.2110513 50.0239199 15.8103558 49.1519082 16.5727458 48.2256442 17.2673987 47.2447304 17.8937186L45.7938286 15.8306173C46.9516089 15.2044961 48.0483802 14.4895817 49.0839438 13.685874L49.0839438 13.685874ZM42.258485 16.3004069C42.4353515 16.3141132 42.6126155 16.3073594 42.7896808 16.2799467 42.9124937 16.2529314 43.0144404 16.2052571 43.0963157 16.1371228 43.2322446 15.9464259 43.2936511 15.7285151 43.2801377 15.4833902L43.2801377 11.3369262C42.6535532 11.6227727 42.0337253 11.908818 41.4206542 12.1946646L40.8485208 9.86597826C41.6658827 9.593838 42.4762892 9.28733259 43.2801377 8.9468593L43.2801377 6.0665427 41.3387789 6.0665427 41.3387789 3.84015728 43.2801377 3.84015728 43.2801377.612812188 45.4667248.612812188 45.4667248 3.84015728 46.8973566 3.84015728 46.8973566 6.0665427 45.4667248 6.0665427 45.4667248 7.98681998C45.8210541 7.83704352 46.1749859 7.67375936 46.5295139 7.49657023L46.7950125 8.61989371 47.0811786 9.72295564 45.4667248 10.3971484 45.4667248 16.1573843C45.4667248 16.552087 45.4188318 16.9469883 45.3238405 17.3420883 45.2554786 17.5598005 45.1533332 17.750696 45.0172056 17.9139801 44.7992027 18.1183833 44.5335054 18.2542548 44.2203125 18.3227865 43.784108 18.4044285 43.3483008 18.4451502 42.9124937 18.4451502L41.5432685 18.4451502 41.0732804 16.3004069 42.258485 16.3004069ZM65.3400658 5.88279836 73.4324058 5.88279836 73.4324058 3.2684641 65.3400658 3.2684641 65.3400658 5.88279836ZM65.2993269 10.5810913 73.4326045 10.5810913 73.4326045 8.10938242 65.3400658 8.10938242 65.3400658 8.59963217C65.3265524 9.26687241 65.3128403 9.9273588 65.2993269 10.5810913L65.2993269 10.5810913ZM61.5801613 15.4015495C61.8661287 14.9522201 62.1044017 14.4691215 62.2953778 13.9512604 62.5539209 13.2025767 62.7174728 12.4330356 62.785636 11.6430343 62.8675113 10.5399723 62.9084489 9.43710905 62.9084489 8.33404711L62.9084489.980499501 75.8644201.980499501 75.8644201 15.5650323C75.8644201 16.0689884 75.8030136 16.5588408 75.6803994 17.0357815 75.5850107 17.3897625 75.394432 17.682363 75.108266 17.9139801 74.8765509 18.0776616 74.6178091 18.200224 74.331643 18.2818661 73.8004472 18.3907222 73.2690526 18.4451502 72.7378568 18.4451502L70.1015517 18.4451502 69.6315636 16.1371228 72.1043169 16.1371228C72.3495453 16.1508291 72.5876196 16.1371228 72.8195334 16.0960038 72.9421476 16.0828933 73.0510497 16.0487268 73.1464384 15.9941001 73.2553405 15.9124581 73.3304591 15.803602 73.371198 15.6671345 73.4121357 15.476835 73.4326045 15.2861382 73.4326045 15.0952427L73.4326045 12.8074768 65.0950361 12.8074768C64.9314842 13.842603 64.6383627 14.8368088 64.2162677 15.789697 63.6574489 16.9062666 62.9764134 17.9413928 62.1725649 18.8946783L59.9657076 17.4443892C60.5513544 16.8039657 61.0897044 16.1234164 61.5801613 15.4015495L61.5801613 15.4015495ZM86.9627958-2.22044605e-16C87.5758669 1.08955425 88.188938 2.1856637 88.8020091 3.28852699L88.4136976 3.47246997 89.803193 3.47246997C90.5661038 2.41032839 91.2745636 1.30726645 91.9285724.163284155L94.217305 1.30726645 92.6642577 3.47246997 95.6274679 3.47246997 95.6274679 7.76195664 93.3180678 7.76195664 93.3180678 5.73977574 80.7504081 5.73977574 80.7504081 7.76195664 78.3595301 7.76195664 78.3595301 3.47246997 81.1591884 3.47246997 79.7694943 1.22542573 81.8948737.163284155C82.6168469 1.23933071 83.3253068 2.32193247 84.0200544 3.41128807L83.8974402 3.47246997 86.165704 3.47246997 84.8374163.939579141 86.9627958-2.22044605e-16ZM86.0430897 11.4183696 86.0430897 10.6625348 88.9653623 9.27362625 81.4044168 9.27362625 81.4044168 7.02678066 92.6847266 7.02678066 92.6847266 9.23290454 88.8836857 11.4183696 95.8522275 11.4183696 95.8522275 13.7470559 88.5770508 13.7470559 88.5770508 15.8715377C88.5770508 16.3208671 88.515843 16.7701965 88.3932288 17.2195259 88.2978401 17.4646507 88.1615137 17.682363 87.9846472 17.8732584 87.7117958 18.104677 87.3918462 18.2616046 87.0242022 18.343048 86.4928077 18.4381978 85.9681699 18.485872 85.4504875 18.485872L82.8962563 18.485872 82.3853306 16.1369241 84.8988228 16.1369241C85.1031136 16.1508291 85.3141611 16.1440752 85.5323628 16.1166626 85.6682916 16.1031549 85.7841492 16.0554807 85.8797366 15.97364 85.9339889 15.8917992 85.9749266 15.8103558 86.0023508 15.7285151 86.0295763 15.5380169 86.0430897 15.3473201 86.0430897 15.1566233L86.0430897 13.7470559 78.1347705 13.7470559 78.1347705 11.4183696 86.0430897 11.4183696ZM111.380892 4.902279 107.007717 4.902279 108.805993 6.02580111C108.165497 7.07463364 107.47075 8.06844219 106.721551 9.00821998L107.641058 8.64033402C108.049839 9.77100727 108.587791 10.8261964 109.255512 11.8064972 109.977485 10.8126887 110.542862 9.73008691 110.951642 8.55889059L112.586565 9.23288467C111.687328 8.19815576 110.781334 7.15627572 109.868583 6.10764183L111.380892 4.902279ZM99.5691873 3.8605976 99.5691873.530951604 101.898857.530951604 101.898857 3.8605976 103.77881 3.8605976 103.77881 6.14836355 101.898857 6.14836355 101.898857 7.27168703 102.246231 6.92465854 103.96283 8.70171456C104.97097 7.5168119 105.88372 6.25046581 106.701281 4.902279L104.208059 4.902279 104.208059 2.55333114 108.213391 2.55333114C107.981477 1.8995986 107.743402 1.23931085 107.498174.571871964L109.848114.122542573C110.161506.926051585 110.447473 1.73631444 110.706414 2.55333114L115.079588 2.55333114 115.079588 4.902279 111.687328 4.902279C113.022372 6.37302825 114.357416 7.85072999 115.692659 9.33498693L113.996529 10.9281 112.995147 9.72293578C112.436526 11.112043 111.700841 12.3855402 110.788289 13.5428315 111.387648 14.087708 112.034702 14.5642514 112.729449 14.9726604 113.69685 15.5312432 114.70479 16.007588 115.754066 16.4024893L114.405309 18.6495335C113.356034 18.1592838 112.348093 17.5941458 111.380892 16.9541196 110.617782 16.4503622 109.902565 15.8784703 109.235043 15.2384441 108.512871 15.8917794 107.756717 16.471021 106.96678 16.9743811 105.931415 17.6414227 104.868626 18.2474811 103.77881 18.7923575L102.49146 16.6273526C103.431436 16.2326499 104.351142 15.7763681 105.250379 15.2587057 106.121993 14.7549482 106.939355 14.16935 107.702465 13.5019112 106.91213 12.4536746 106.272032 11.3233986 105.781575 10.1112819 105.427246 10.5061833 105.066358 10.8808231 104.698516 11.2346054L103.77881 10.3152878 102.981917 11.0711226 101.898857 9.8047765 101.898857 18.5472326 99.5691873 18.5472326 99.5691873 10.9078384C98.9970538 12.1062488 98.3498017 13.2502311 97.6278285 14.3395867L96.5447693 11.8064972C97.7299739 10.0363937 98.6971756 8.15008427 99.446573 6.14836355L97.3213923 6.14836355 97.3213923 3.8605976 99.5691873 3.8605976Z"/><polygon points="9.952 37.125 7.017 37.125 2.824 25.721 2.824 37.125 0 37.125 0 21.862 4.568 21.862 8.606 33.133 12.644 21.862 17.101 21.862 17.101 37.125 14.144 37.125 14.144 25.721"/><path d="M26.3464379 34.5441535C29.3032888 34.5441535 31.0683772 32.3827242 31.0683772 29.4930714 31.0683772 26.6258652 29.2371129 24.4203372 26.3243793 24.4203372 23.3675283 24.4203372 21.6242999 26.6258652 21.6242999 29.4930714 21.6242999 32.3827242 23.4998802 34.5441535 26.3464379 34.5441535M26.2800633 21.5749817C31.1347518 21.5749817 34.2899317 24.9717689 34.2899317 29.4710221 34.2899317 33.9488219 31.1347518 37.4115583 26.3464379 37.4115583 21.4919481 37.4115583 18.4027453 34.0366219 18.4027453 29.5153194 18.4027453 25.0158675 21.6463585 21.5749817 26.2800633 21.5749817M42.8316518 34.5441535C45.7885027 34.5441535 47.5535911 32.3827242 47.5535911 29.4930714 47.5535911 26.6258652 45.7223268 24.4203372 42.8095932 24.4203372 39.8527423 24.4203372 38.1095138 26.6258652 38.1095138 29.4930714 38.1095138 32.3827242 39.9850941 34.5441535 42.8316518 34.5441535M42.7652772 21.5749817C47.6199657 21.5749817 50.7751456 24.9717689 50.7751456 29.4710221 50.7751456 33.9488219 47.6199657 37.4115583 42.8316518 37.4115583 37.977162 37.4115583 34.8879592 34.0366219 34.8879592 29.5153194 34.8879592 25.0158675 38.1315724 21.5749817 42.7652772 21.5749817"/><polygon points="55.056 27.067 55.056 37.125 52.077 37.125 52.077 21.862 55.255 21.862 61.808 32.096 61.808 21.862 64.787 21.862 64.787 37.125 61.742 37.125"/><path d="M70.9499348,27.4641367 C71.6780685,27.7726285 72.406401,28.0376176 73.2448279,28.4124561 C75.0762909,29.2284796 76.1796201,30.5077374 76.1796201,32.6693654 C76.1796201,35.5808688 74.1053134,37.4115583 71.1486612,37.4115583 C67.1105397,37.4115583 66.1397609,34.786696 66.2498554,32.4266242 L69.162589,32.4266242 C69.1405304,33.6617834 69.6480778,34.7646467 71.1486612,34.7646467 C72.2297331,34.7646467 73.0242415,34.1470671 73.0242415,33.0003038 C73.0242415,31.9858364 72.3841436,31.4560568 71.3913062,31.0373184 C70.5308207,30.640232 69.6260191,30.3754415 68.7432762,29.8683071 C67.2649501,29.0961836 66.4706405,27.7066792 66.4706405,25.8759897 C66.4706405,23.3836219 68.2800449,21.5749817 71.1486612,21.5749817 C74.5908021,21.5749817 75.8044246,23.6484124 75.6941314,26.1405815 L72.8696323,26.1405815 C72.8696323,25.0158675 72.2738504,24.1996454 71.1486612,24.1996454 C70.0894492,24.1996454 69.5157259,24.8613237 69.5157259,25.7216444 C69.5157259,26.5156186 69.9570974,27.0450009 70.9499348,27.4641367"/><polygon points="89.794 37.125 86.727 37.125 86.727 30.751 80.637 30.751 80.637 37.125 77.569 37.125 77.569 21.862 80.637 21.862 80.637 27.839 86.727 27.839 86.727 21.862 89.794 21.862"/><path d="M99.0283731,34.5441535 C101.985224,34.5441535 103.750312,32.3827242 103.750312,29.4930714 C103.750312,26.6258652 101.919048,24.4203372 99.0063144,24.4203372 C96.0494635,24.4203372 94.3062351,26.6258652 94.3062351,29.4930714 C94.3062351,32.3827242 96.1818153,34.5441535 99.0283731,34.5441535 M98.9619984,21.5749817 C103.816687,21.5749817 106.971867,24.9717689 106.971867,29.4710221 C106.971867,33.9488219 103.816687,37.4115583 99.0283731,37.4115583 C94.1738833,37.4115583 91.0846805,34.0366219 91.0846805,29.5153194 C91.0846805,25.0158675 94.3282937,21.5749817 98.9619984,21.5749817"/><polygon points="112.703 24.729 112.703 37.125 109.635 37.125 109.635 24.729 106.855 24.729 106.855 21.862 115.483 21.862 115.483 24.729"/><path d="M29.150647 49.321151 32.4824948 49.321151 30.8056409 44.7333033 29.150647 49.321151ZM33.4314136 51.9237654 28.2017282 51.9237654 26.7013435 56.1143281 23.6783166 56.1143281 29.1947643 40.8514311 32.4163188 40.8514311 38.1974701 56.1143281 34.9538569 56.1143281 33.4314136 51.9237654ZM50.4880853 54.3939646C49.3185801 55.5409266 47.6417263 56.4012474 45.4350677 56.4012474 40.514402 56.4012474 37.4251993 53.0044602 37.4251993 48.5048097 37.4251993 44.0276059 40.6026365 40.5646707 45.3688918 40.5646707 47.5534917 40.5646707 49.2303455 41.2704476 50.443968 42.3512616L48.6345636 44.6451855C47.9284885 44.0276059 46.8031006 43.4100263 45.3909504 43.4100263 42.4340995 43.4100263 40.6467538 45.6157528 40.6467538 48.482959 40.6467538 51.3722146 42.5664514 53.5338425 45.4350677 53.5338425 46.9795697 53.5338425 48.0608404 52.8058177 48.7007395 52.2545847L50.4880853 54.3939646ZM55.9340248 49.321151 59.2658725 49.321151 57.5890187 44.7333033 55.9340248 49.321151ZM60.2147913 51.9237654 54.985106 51.9237654 53.4847212 56.1143281 50.4616944 56.1143281 55.978142 40.8514311 59.1996966 40.8514311 64.9808479 56.1143281 61.7372347 56.1143281 60.2147913 51.9237654ZM68.604128 53.4014671 68.7805971 53.4014671C71.6492134 53.4235165 73.4365591 51.6810242 73.4365591 48.4610289 73.4365591 45.2847349 71.6933307 43.5424414 68.7805971 43.564292L68.604128 43.564292 68.604128 53.4014671ZM68.6261866 40.8514311C73.6350869 40.8514311 76.6360551 43.7186373 76.6360551 48.4610289 76.6360551 53.1589246 73.6130282 56.1143281 68.6261866 56.1143281L65.5369839 56.1143281 65.5369839 40.8514311 68.6261866 40.8514311Z"/><polygon points="77.973 56.114 77.973 40.851 84.968 40.851 84.968 43.719 81.04 43.719 81.04 46.895 84.858 46.895 84.858 49.718 81.04 49.718 81.04 53.247 85.034 53.247 85.034 56.114"/><polygon points="96.716 56.114 93.781 56.114 89.589 44.711 89.589 56.114 86.764 56.114 86.764 40.851 91.332 40.851 95.37 52.122 99.408 40.851 103.865 40.851 103.865 56.114 100.908 56.114 100.908 44.711"/><polygon points="104.406 40.851 107.826 40.851 110.297 45.483 112.813 40.851 116.056 40.851 111.731 48.439 111.731 56.114 108.664 56.114 108.664 48.483"/></g></svg>