<svg width="26px" height="154px" viewBox="0 0 26 154" xmlns="http://www.w3.org/2000/svg"><title>social_icons</title><g id="页面-1" stroke="none" stroke-width="1" fill="none" fill-rule="evenodd"><g id="画板" fill-rule="nonzero"><g id="social_icons"><path d="M17.5875,7.64149 C17.7344,7.64149 17.8813,7.64647 18.0257,7.65394 C17.4183,4.44979 14.0846,2 10.0614,2 C5.60996,2 2,5.00248 2,8.70705 C2,10.72613 3.08548,12.54603 4.78589,13.77593 C4.85603,13.82543 4.91322,13.89113 4.95265,13.96733 C4.99208,14.04363 5.01259,14.12823 5.01245,14.21413 C5.01245,14.27383 5,14.32863 4.98506,14.38593 C4.84813,14.89123 4.63154,15.70043 4.62158,15.73773 C4.60415,15.80253 4.57925,15.86723 4.57925,15.93443 C4.57925,16.08133 4.69875,16.20333 4.84813,16.20333 C4.90539,16.20333 4.9527,16.18093 5.00249,16.15353 L6.76763,15.13523 C6.89958,15.05813 7.04149,15.01073 7.19585,15.01073 C7.27552,15.01073 7.35519,15.02323 7.43236,15.04563 C8.25643,15.28213 9.1452,15.41413 10.0639,15.41413 C10.2133,15.41413 10.3602,15.41163 10.5071,15.40413 C10.3303,14.88133 10.2357,14.33113 10.2357,13.76103 C10.2357,10.38008 13.527,7.64149 17.5875,7.64149 Z M12.7502,5.48796 C13.3427,5.48796 13.8257,5.96846 13.8257,6.56099 C13.8257,7.15352 13.3452,7.63402 12.7502,7.63402 C12.1577,7.63402 11.6747,7.15352 11.6747,6.56099 C11.6747,5.96846 12.1577,5.48796 12.7502,5.48796 Z M7.3751,7.63402 C6.78257,7.63402 6.29958,7.15352 6.29958,6.56099 C6.29958,5.96846 6.78008,5.48796 7.3751,5.48796 C7.97012,5.48796 8.45062,5.96846 8.45062,6.56099 C8.45062,7.15352 7.96763,7.63402 7.3751,7.63402 Z M21.9842,17.98093 C23.4008,16.95513 24.3046,15.44153 24.3046,13.75603 C24.3046,10.66887 21.2971,8.1668 17.5851,8.1668 C13.8755,8.1668 10.8656,10.66887 10.8656,13.75603 C10.8656,16.84313 13.873,19.34523 17.5851,19.34523 C18.3519,19.34523 19.0938,19.23563 19.7784,19.03903 C19.8432,19.01903 19.9079,19.00913 19.9751,19.00913 C20.1046,19.00913 20.2216,19.04893 20.3311,19.11123 L21.8025,19.95763 C21.8448,19.98253 21.8846,20.0000352 21.9319,20.0000352 C21.9615,20.00023 21.9907,19.99463 22.0181,19.98353 C22.0454,19.97243 22.0703,19.95603 22.0913,19.93523 C22.112,19.91423 22.1284,19.88943 22.1395,19.86203 C22.1507,19.83473 22.1562,19.80543 22.156,19.77593 C22.156,19.72113 22.1336,19.66633 22.1212,19.61163 C22.1137,19.58173 21.9319,18.90703 21.8174,18.48383 C21.805,18.43653 21.795,18.38923 21.795,18.34193 C21.7975,18.19503 21.8722,18.06303 21.9842,17.98093 Z M15.3494,12.86473 C14.8539,12.86473 14.4531,12.46393 14.4531,11.97093 C14.4531,11.47803 14.8539,11.07713 15.3494,11.07713 C15.8448,11.07713 16.2456,11.47803 16.2456,11.97093 C16.2456,12.46393 15.8423,12.86473 15.3494,12.86473 Z M19.8282,12.86473 C19.3328,12.86473 18.9319,12.46393 18.9319,11.97093 C18.9319,11.47803 19.3328,11.07713 19.8282,11.07713 C20.3236,11.07713 20.7245,11.47803 20.7245,11.97093 C20.7233,12.20803 20.6284,12.43513 20.4605,12.60253 C20.2926,12.76993 20.0653,12.86423 19.8282,12.86473 Z" id="形状" fill="#0B0A0A"></path><path d="M4.77202308,24.0837132 C6.59902308,23.5347132 8.79102308,25.6557032 12.2740231,31.3436932 C12.6650231,31.9817332 13.0000231,32.5037332 13.0190231,32.5047332 C13.0370231,32.5047332 13.3900231,31.9517332 13.8010231,31.2756932 C17.2650231,25.5937032 19.4590231,23.5057132 21.3210231,24.1177132 C22.5050231,24.5057132 23.0040231,25.6487032 23.0000469,27.9607032 C22.9910231,32.4567332 20.8300231,39.5036332 19.0660231,40.7856332 C17.6130231,41.8416332 15.4420231,40.5126332 13.4190231,37.3266332 C13.2180231,37.0096332 13.0340231,36.7496332 13.0120231,36.7486332 C12.9900231,36.7486332 12.8120231,37.0066332 12.6160231,37.3226332 C11.5490231,39.0476332 10.2410231,40.3836332 9.12002308,40.8956332 C8.57502308,41.1436332 7.62702308,41.1776332 7.22702308,40.9626332 C6.13702308,40.3776332 4.91002308,37.8346332 3.95902308,34.1887332 C2.44002308,28.3637032 2.73602308,24.6957132 4.77202308,24.0837132 Z M20.0380231,26.3997032 C18.8810231,27.2987032 17.3910231,29.2997032 15.2080231,32.8857332 L14.1780231,34.5767332 L14.5300231,35.2087332 C15.4160231,36.7976332 16.4400231,38.1336332 17.2670231,38.7786332 C17.8270231,39.2186332 18.0120231,39.1256332 18.5010231,38.1626332 C20.0400231,35.1377332 21.3510231,28.9397032 20.9230231,26.7127032 C20.7940231,26.0407032 20.5930231,25.9697032 20.0380231,26.3997032 Z M5.29402308,26.2097032 C4.88102308,26.6167032 4.98802308,29.2597032 5.52402308,31.8996932 C6.17002308,35.0847332 7.53102308,38.7896332 8.12902308,38.9976332 C8.71102308,39.2006332 10.3120231,37.3696332 11.5690231,35.0637332 L11.8440231,34.5587332 L10.9620231,33.1107332 C8.59802308,29.2327032 7.05602308,27.1607032 5.92202308,26.3367032 C5.57402308,26.0837032 5.44602308,26.0587032 5.29402308,26.2087032 L5.29402308,26.2097032 Z" id="形状" fill="#0B0A0A"></path><path d="M16.5601,45 L13.1901,45 L13.1901,58.6232 C13.1901,60.2464 11.8931,61.5797 10.2801,61.5797 C8.6671,61.5797 7.3701,60.2464 7.3701,58.6232 C7.3701,57.029 8.6381,55.7246 10.1941,55.6667 L10.1941,52.24639 C6.7651,52.30433 4,55.1159 4,58.6232 C4,62.1594 6.8231,65 10.3091,65 C13.7951,65 16.6181,62.1304 16.6181,58.6232 L16.6181,51.63767 C17.8851,52.56522 19.4411,53.11594 21.0831,53.14494 L21.0831,49.72464 C18.5481,49.63768 16.5601,47.55072 16.5601,45 Z" id="路径" fill="#0B0A0A"></path><path d="M8.022,68.285539 L11.17,71.434579 L14.249,71.434579 L17.398,68.286509 C17.58,68.104303 17.828,68.001942 18.085,68.001942 C18.343,68.001942 18.59,68.104303 18.772,68.286509 C18.954,68.468709 19.057,68.715829 19.057,68.973509 C19.057,69.231189 18.954,69.478309 18.772,69.660509 L16.996,71.434579 L19.022,71.434579 C19.468,71.434579 19.91,71.522489 20.322,71.693279 C20.735,71.864079 21.109,72.114419 21.425,72.430009 C21.741,72.745599 21.991,73.120259 22.162,73.532589 C22.333,73.944929 22.42,74.386869 22.42,74.833179 L22.42,82.601409 C22.42,83.047709 22.333,83.489609 22.162,83.902009 C21.991,84.314309 21.741,84.689009 21.425,85.004609 C21.109,85.320209 20.735,85.570509 20.322,85.741309 C19.91,85.912109 19.468,86 19.022,86 L6.398,86 C5.952,86 5.51,85.912109 5.098,85.741309 C4.686,85.570509 4.311,85.320209 3.995,85.004609 C3.68,84.689009 3.429,84.314309 3.259,83.902009 C3.088,83.489609 3,83.047709 3,82.601409 L3,74.833179 C3,74.386869 3.088,73.944929 3.259,73.532589 C3.429,73.120259 3.68,72.745599 3.995,72.430009 C4.311,72.114419 4.686,71.864079 5.098,71.693279 C5.51,71.522489 5.952,71.434579 6.398,71.434579 L8.423,71.434579 L6.648,69.658569 C6.558,69.568349 6.486,69.461249 6.437,69.343369 C6.389,69.225499 6.363,69.099159 6.363,68.971569 C6.363,68.713889 6.466,68.466769 6.648,68.284569 C6.83,68.102361 7.077,68 7.335,68 C7.463,68 7.589,68.02513 7.707,68.073956 C7.825,68.122782 7.932,68.194347 8.022,68.284569 L8.022,68.285539 Z M19.022,73.376639 L6.398,73.376639 C6.036,73.376639 5.687,73.511529 5.419,73.754969 C5.151,73.998399 4.983,74.332939 4.949,74.693349 L4.942,74.833179 L4.942,82.601409 C4.942,82.963509 5.077,83.312609 5.32,83.580609 C5.564,83.848609 5.898,84.016409 6.259,84.051109 L6.398,84.057909 L19.022,84.057909 C19.384,84.057909 19.733,83.923009 20.001,83.679609 C20.269,83.436209 20.437,83.101609 20.472,82.741209 L20.478,82.601409 L20.478,74.833179 C20.478,74.446879 20.325,74.076399 20.052,73.803249 C19.779,73.530089 19.408,73.376639 19.022,73.376639 Z M8.826,76.289719 C9.084,76.289719 9.331,76.392029 9.513,76.574129 C9.695,76.756229 9.797,77.003219 9.797,77.260709 L9.797,79.202809 C9.797,79.460309 9.695,79.707209 9.513,79.889309 C9.331,80.071409 9.084,80.173709 8.826,80.173709 C8.569,80.173709 8.322,80.071409 8.139,79.889309 C7.957,79.707209 7.855,79.460309 7.855,79.202809 L7.855,77.260709 C7.855,77.003219 7.957,76.756229 8.139,76.574129 C8.322,76.392029 8.569,76.289719 8.826,76.289719 Z M16.594,76.289719 C16.852,76.289719 17.099,76.392029 17.281,76.574129 C17.463,76.756229 17.565,77.003219 17.565,77.260709 L17.565,79.202809 C17.565,79.460309 17.463,79.707209 17.281,79.889309 C17.099,80.071409 16.852,80.173709 16.594,80.173709 C16.337,80.173709 16.09,80.071409 15.908,79.889309 C15.726,79.707209 15.623,79.460309 15.623,79.202809 L15.623,77.260709 C15.623,77.003219 15.726,76.756229 15.908,76.574129 C16.09,76.392029 16.337,76.289719 16.594,76.289719 Z" id="形状" fill="#0B0A0A"></path><g id="编组" transform="translate(3, 89)"><path d="M19.911,16.2944312 L19.911,3.6174212 C19.911,1.6277312 18.283,-5.82867088e-16 16.293,-5.82867088e-16 L3.617,-5.82867088e-16 C1.627,-5.82867088e-16 0,1.6277312 0,3.6174212 L0,16.2944312 C0,18.2641312 1.595,19.8798312 3.559,19.9111312 L16.352,19.9111312 C18.314,19.8798312 19.911,18.2649312 19.911,16.2944312 Z" id="路径" fill="#0B0A0A"></path><path d="M14.136,7.1132812 L15.256,7.1132812 L15.256,7.5143512 C15.256,7.5463512 15.272,7.5612812 15.303,7.5605712 C15.967,7.5406612 16.636,7.5619912 16.979,8.2432412 C17.183,8.6471512 17.141,9.2615512 17.129,9.7436812 C17.129,9.7721212 17.142,9.7877712 17.169,9.7906112 C17.247,9.7977212 17.324,9.8048412 17.398,9.8140812 C18.718,9.9726312 18.457,11.2178312 18.461,12.1963312 C18.463,12.5376312 18.425,12.7872312 18.348,12.9465312 C18.184,13.2764312 17.891,13.4656312 17.469,13.5125312 L16.645,13.5125312 L16.224,12.5355312 C16.222,12.5307312 16.221,12.5255312 16.222,12.5203312 C16.222,12.5151312 16.224,12.5100312 16.226,12.5056312 C16.229,12.5013312 16.233,12.4977312 16.237,12.4952312 C16.242,12.4927312 16.247,12.4914312 16.252,12.4914312 L17.145,12.4907312 C17.195,12.4907312 17.242,12.4693312 17.276,12.4324312 C17.31,12.3951312 17.329,12.3459312 17.329,12.2951312 C17.324,11.9964312 17.322,11.6985312 17.324,11.4005312 C17.324,11.1325312 17.197,10.9952312 16.942,10.9881312 C16.653,10.9810312 16.106,10.9810312 15.3,10.9895312 C15.272,10.9895312 15.258,11.0052312 15.258,11.0357312 L15.254,13.5125312 L14.135,13.5125312 L14.131,11.0251312 C14.132,11.0192312 14.131,11.0134312 14.129,11.0079312 C14.126,11.0025312 14.123,10.9975312 14.119,10.9932312 C14.115,10.9890312 14.11,10.9856312 14.105,10.9833312 C14.1,10.9809312 14.094,10.9797312 14.088,10.9796312 L13.043,10.9796312 C13.03,10.9792312 13.017,10.9738312 13.008,10.9645312 C12.999,10.9552312 12.994,10.9427312 12.994,10.9298312 L12.996,9.8475012 C12.996,9.8112412 13.013,9.7927512 13.047,9.7927512 L14.08,9.7948812 C14.087,9.7948312 14.093,9.7934212 14.1,9.7907312 C14.106,9.7880412 14.111,9.7841312 14.116,9.7792412 C14.125,9.7691512 14.13,9.7559412 14.13,9.7422612 L14.13,8.8064412 C14.13,8.7901512 14.124,8.7743612 14.113,8.7625112 C14.102,8.7506612 14.087,8.7437012 14.07,8.7431512 L13.432,8.7459912 C13.399,8.7459912 13.383,8.7282112 13.383,8.6933712 L13.38,7.6053712 C13.38,7.5733712 13.395,7.5577212 13.427,7.5577212 L14.087,7.5577212 C14.116,7.5577212 14.13,7.5435012 14.13,7.5129212 L14.137,7.1132812 L14.136,7.1132812 Z M15.296,9.7963012 L15.991,9.7948812 C16.002,9.7948812 16.013,9.7899012 16.021,9.7813712 C16.029,9.7729012 16.033,9.7616812 16.033,9.7500812 L16.029,8.8803912 C16.029,8.8121212 15.98,8.7566612 15.919,8.7566612 L15.362,8.7580812 C15.347,8.7583012 15.332,8.7617212 15.319,8.7681012 C15.305,8.7744712 15.293,8.7836712 15.283,8.7950612 C15.262,8.8197712 15.251,8.8514012 15.251,8.8839512 L15.255,9.7536412 C15.255,9.7778112 15.274,9.7963012 15.296,9.7963012 Z M8.11,9.8745212 C7.84,9.8795012 7.351,9.9548812 7.244,9.6071512 C7.18,9.3995012 7.326,9.1100812 7.415,8.9074112 C7.668,8.3307012 7.916,7.7518612 8.16,7.1708812 C8.17,7.1474112 8.187,7.1353212 8.211,7.1353212 L9.28,7.1353212 C9.289,7.1353212 9.297,7.1403012 9.302,7.1481212 C9.304,7.1518712 9.306,7.1561412 9.306,7.1605812 C9.307,7.1650312 9.306,7.1695312 9.304,7.1737212 L8.686,8.6194112 C8.672,8.6528412 8.675,8.6905212 8.694,8.7218112 C8.702,8.7364612 8.715,8.7485912 8.73,8.7570512 C8.745,8.7655112 8.762,8.7700212 8.779,8.7701712 L9.695,8.7701712 C9.706,8.7701712 9.716,8.7758612 9.723,8.7851012 C9.728,8.7950612 9.73,8.8064412 9.725,8.8171012 C9.46,9.4336412 9.196,10.0459312 8.933,10.6539312 C8.907,10.7143312 8.896,10.7591312 8.9,10.7876312 C8.909,10.8494312 8.944,10.8807312 9.004,10.8814312 L9.583,10.8850312 C9.617,10.8857312 9.627,10.9020312 9.614,10.9348312 L9.239,11.8165312 C9.234,11.8311312 9.224,11.8437312 9.211,11.8525312 C9.199,11.8613312 9.183,11.8659312 9.168,11.8656312 C8.579,11.8727312 8.167,11.8727312 7.933,11.8620312 C7.544,11.8443312 7.449,11.5044312 7.6,11.1538312 L8.132,9.9107912 C8.134,9.9068712 8.135,9.9026512 8.134,9.8984512 C8.134,9.8942512 8.133,9.8902012 8.13,9.8866112 C8.128,9.8828812 8.125,9.8797912 8.121,9.8776612 C8.118,9.8755412 8.113,9.8744512 8.109,9.8745212 L8.11,9.8745212 Z M3.669,13.5125312 L3.249,13.5125312 L2.838,12.5476312 C2.836,12.5429312 2.835,12.5378312 2.836,12.5327312 C2.836,12.5276312 2.838,12.5227312 2.84,12.5184312 C2.843,12.5141312 2.846,12.5106312 2.851,12.5081312 C2.855,12.5056312 2.86,12.5043312 2.865,12.5042312 L3.445,12.5028312 C3.463,12.5024312 3.48,12.4985312 3.497,12.4913312 C3.513,12.4842312 3.528,12.4739312 3.54,12.4610312 C3.552,12.4481312 3.562,12.4329312 3.569,12.4163312 C3.575,12.3997312 3.578,12.3819312 3.578,12.3641312 L3.593,7.2462612 C3.593,7.2396612 3.594,7.2330912 3.597,7.2269412 C3.599,7.2207812 3.603,7.2151512 3.607,7.2103912 C3.612,7.2056212 3.617,7.2018212 3.623,7.1991812 C3.629,7.1965512 3.636,7.1951512 3.643,7.1950612 L4.641,7.1950612 C4.688,7.1950612 4.711,7.2199512 4.712,7.2690112 C4.716,9.0019912 4.716,10.7051312 4.712,12.3790312 C4.709,13.0660312 4.391,13.5353312 3.669,13.5125312 Z" id="形状" fill="#FFFFFF"></path><path d="M13.035,13.5124312 L9.247,13.5124312 L9.755,12.3675312 C9.76,12.3542312 9.769,12.3429312 9.781,12.3351312 C9.793,12.3273312 9.807,12.3235312 9.821,12.3241312 L10.749,12.3255312 C10.781,12.3255312 10.798,12.3092312 10.798,12.2757312 L10.798,8.8019912 C10.798,8.7721212 10.784,8.7571912 10.756,8.7571912 L10.141,8.7564812 C10.113,8.7564812 10.091,8.7323012 10.091,8.7031512 L10.091,7.5888312 C10.091,7.5717712 10.104,7.5575512 10.12,7.5575512 L12.627,7.5575512 C12.659,7.5575512 12.673,7.5739012 12.673,7.6066112 L12.675,8.7088312 C12.675,8.7408312 12.659,8.7571912 12.628,8.7571912 L12.008,8.7571912 C11.979,8.7571912 11.965,8.7721212 11.965,8.8019912 L11.965,12.2736312 C11.965,12.3070312 11.982,12.3234312 12.013,12.3234312 L12.996,12.3255312 C13.023,12.3255312 13.036,12.3397312 13.036,12.3682312 L13.035,13.5131312 L13.035,13.5124312 Z M17.545,7.6656312 C18.319,7.1337212 18.864,8.4898112 18.016,8.7223512 C17.878,8.7607512 17.658,8.7628812 17.358,8.7294612 C17.331,8.7266112 17.318,8.7116812 17.318,8.6832312 C17.313,8.3632312 17.25,7.8683012 17.545,7.6663512 L17.545,7.6656312 Z M6.865,11.6528312 L6.353,12.8453312 C6.307,12.9520312 6.256,12.9541312 6.2,12.8539312 C5.823,12.1726312 5.695,11.6165312 5.621,10.7696312 C5.565,10.1118312 5.515,9.4540812 5.473,8.7948812 C5.471,8.7650112 5.485,8.7500812 5.513,8.7500812 L6.551,8.7507912 C6.58,8.7507912 6.596,8.7664312 6.598,8.7963012 C6.652,9.5628812 6.708,10.3273312 6.766,11.0896312 C6.781,11.2859312 6.815,11.4487312 6.866,11.5781312 C6.871,11.5899312 6.873,11.6027312 6.873,11.6155312 C6.873,11.6284312 6.87,11.6411312 6.865,11.6528312 Z M1.414,11.6087312 L1.414,11.5596312 C1.462,11.4934312 1.494,11.4163312 1.506,11.3349312 C1.583,10.4887312 1.646,9.6432312 1.695,8.7970112 C1.697,8.7707012 1.71,8.7571912 1.734,8.7571912 L2.794,8.7571912 C2.803,8.7571912 2.813,8.7614612 2.82,8.7692812 C2.826,8.7763912 2.83,8.7863512 2.829,8.7963012 C2.773,9.5759512 2.711,10.3551312 2.642,11.1337312 C2.592,11.6990312 2.411,12.4556312 2.034,12.9143312 C2.01,12.9435312 1.989,12.9406312 1.973,12.9051312 L1.414,11.6087312 Z M8.64,13.5124312 L7.105,13.5124312 L6.91,13.4348312 C6.882,13.4242312 6.874,13.4050312 6.887,13.3772312 L7.369,12.2750312 C7.383,12.2430312 7.406,12.2309312 7.438,12.2395312 C7.965,12.3824312 8.574,12.3234312 9.112,12.3255312 C9.146,12.3262312 9.155,12.3426312 9.141,12.3739312 L8.64,13.5116312 L8.64,13.5124312 Z" id="形状" fill="#FFFFFF"></path></g><path d="M18.439,113 L21.25,113 L15.108,120.01957 L22.333,129.57166 L16.676,129.57166 L12.245,123.77836 L7.175,129.57166 L4.362,129.57166 L10.931,122.06336 L4,113 L9.801,113 L13.806,118.29527 L18.439,113 Z M17.452,127.88896 L19.01,127.88896 L8.955,114.59427 L7.283,114.59427 L17.452,127.88896 Z" id="形状" fill="#0B0A0A"></path><path d="M24.123,138.45237 C24.123,138.45237 23.9,136.88392 23.216,136.19522 C22.35,135.28881 21.381,135.28436 20.937,135.23104 C17.756,135 12.979,135 12.979,135 L12.97,135 C12.97,135 8.194,135 5.012,135.23104 C4.568,135.28436 3.599,135.28881 2.733,136.19522 C2.049,136.88392 1.831,138.45237 1.831,138.45237 C1.831,138.45237 1.6,140.2963 1.6,142.13579 L1.6,143.85975 C1.6,145.69925 1.827,147.54315 1.827,147.54315 C1.827,147.54315 2.049,149.11165 2.729,149.80035 C3.595,150.70675 4.732,150.67565 5.239,150.77335 C7.061,150.94665 12.975,150.99995 12.975,150.99995 C12.975,150.99995 17.756,150.99115 20.937,150.76455 C21.381,150.71115 22.35,150.70675 23.216,149.80035 C23.9,149.11165 24.123,147.54315 24.123,147.54315 C24.123,147.54315 24.349,145.70365 24.349,143.85975 L24.349,142.13579 C24.349,140.2963 24.123,138.45237 24.123,138.45237 Z M10.624,145.95255 L10.624,139.55873 L16.769,142.76673 L10.624,145.95255 Z" id="形状" fill="#0B0A0A"></path></g></g></g></svg>