<svg xmlns="http://www.w3.org/2000/svg" width="230" height="230" viewBox="0 0 230 230"><g fill="none" transform="translate(19 20)"><path fill="#B5D1E3" d="M20.7776429 107.236318C17.2507092 106.940843 13.5082064 106.405369 10.5239595 104.765809 10.1002439 117.263918 12.356349 131.165503 21.816255 140.332723 26.7206884 145.085297 33.1711111 148.084398 39.8123966 149.738038 46.107054 151.305396 52.5183498 151.436248 58.9223292 151.478277 58.8826721 145.882897 58.6902187 140.31409 57.2847258 135.006669 53.095922 119.19027 37.5538527 108.641276 20.7776429 107.236318ZM121.576458 177.312747C121.695854 177.348636 121.808675 177.390983 121.929449 177.42539 130.851758 179.967781 143.697995 177.666554 148.362471 168.818946 151.020979 163.776297 151.936485 158.026034 152.291277 152.154978 144.345232 162.595988 133.828052 171.250177 121.576458 177.312747ZM58.852134 25.5449205C58.8788548 25.5266055 58.9056817 25.5083965 58.9322964 25.4900815 60.7032918 24.279706 62.4928432 23.1076544 64.301693 21.9795375 57.4266005 23.6195205 50.682355 25.8465351 44.1447717 28.4457775 43.5146061 28.6963643 42.8863492 28.9502329 42.2601069 29.2073834 30.9422569 33.8541961 19.7024487 39.4686316 15.7234881 51.8614026 14.3504419 56.1374696 13.8282198 60.5171803 13.5775533 64.9300273 15.701751 62.0433565 18.0475616 59.3664079 20.4845623 56.9864157 32.3169998 45.4299927 45.1761734 34.8984665 58.852134 25.5449205ZM188.308585 80.2559446C187.431782 72.6253812 183.001643 65.6409231 177.938899 60.0139953 175.576865 57.3887097 173.089286 54.9427625 170.503942 52.634548 173.714892 64.0223251 174.459681 76.2773633 173.599102 87.0776854 173.056203 93.8891572 172.112174 100.772407 170.739658 107.583137 173.911269 105.188959 177.051493 102.757727 179.861631 99.9317181 181.662528 98.1206543 183.316673 96.158942 184.681236 94.0560033 187.334548 89.9672146 188.893262 85.3441161 188.308585 80.2559446Z"/><path fill="#E6312C" d="M92.2358521 19.1206038C108.268333 19.8812569 123.875932 24.817933 138.197645 31.8114957 149.906658 37.5293631 160.919127 44.0776499 170.503836 52.634548 167.251851 41.101204 161.470297 30.4575648 152.242289 23.1225816 139.588717 13.0647036 123.294436 7.88082846 107.123262 7.99156516 91.3676382 8.09944346 77.3209794 13.8598693 64.301693 21.9795375 70.9702296 20.3888884 77.7616606 19.3502289 84.6116228 19.0839738 87.1520076 18.985306 89.6966338 19.0002332 92.2358521 19.1206038ZM12.9126083 80.3787501C13.3632567 75.2565954 13.2856391 70.0708146 13.5776593 64.9301332 6.88218992 74.029493 2.44006876 85.2645043 4.70306615 96.2788891 5.19040267 98.6572932 6.15065497 101.010078 7.8924907 102.796474 8.66654566 103.59037 9.5564968 104.234464 10.5238534 104.765915 10.5658433 103.528014 10.6246926 102.2989 10.7151404 101.094559 11.2347116 94.1703395 12.3060885 87.2729039 12.9126083 80.3787501ZM82.6967381 153.861127C74.9460091 151.443976 66.939948 151.530893 58.9221171 151.478171 58.9831932 160.099119 58.678873 168.783798 61.8676613 176.677546 65.0351366 184.518467 72.8897798 187.030369 81.3022728 186.916245 95.8654277 186.71838 109.5539 183.261934 121.576458 177.312641 113.334046 174.834511 108.51391 168.911579 102.288705 163.518829 96.9241864 158.87191 89.3926316 155.949351 82.6967381 153.861127ZM152.903629 133.912747C152.417141 139.675608 152.664414 145.982095 152.291277 152.154872 155.844084 147.486568 158.886544 142.463928 161.335208 137.153119 165.642665 127.810795 168.684807 117.78076 170.739658 107.583137 166.565275 110.734263 162.335118 113.819329 158.717418 117.638898 154.67314 121.908825 153.383967 128.222722 152.903629 133.912747Z"/><path fill="#FFF" d="M170.503942,52.634548 C160.919233,44.0776499 149.906764,37.5293631 138.197751,31.8114957 C123.875932,24.8180389 108.268439,19.8812569 92.2359582,19.1206038 C89.6966338,19.0001273 87.1521136,18.9852001 84.6117289,19.0839738 C77.7617666,19.3502289 70.9703356,20.3888884 64.3017991,21.9795375 C62.4929493,23.1076544 60.7033978,24.279706 58.9324025,25.4900815 C58.9056817,25.5083965 58.8789609,25.5266055 58.8522401,25.5449205 C45.1761734,34.8984665 32.3169998,45.4299927 20.4845623,56.9864157 C18.0475616,59.3665138 15.701751,62.0433565 13.5775533,64.9300273 C13.2855331,70.0707088 13.3631507,75.2565954 12.9125022,80.3786443 C12.3060885,87.2729039 11.2346055,94.1702336 10.7151404,101.094348 C10.6246926,102.298795 10.5657372,103.527803 10.5238534,104.765703 C13.5081004,106.405263 17.2506031,106.940843 20.7775368,107.236212 C37.5538527,108.64117 53.095816,119.190165 57.2845137,135.006351 C58.6900066,140.313879 58.88246,145.88258 58.9221171,151.477959 C66.939948,151.530681 74.9460091,151.443764 82.6967381,153.860916 C89.3926316,155.949033 96.9241864,158.871699 102.288705,163.518723 C108.514016,168.911367 113.334046,174.834405 121.576458,177.312536 C133.828052,171.249966 144.345232,162.595776 152.291277,152.154766 C152.664414,145.981989 152.417247,139.675502 152.903629,133.912641 C153.383967,128.222617 154.67314,121.908719 158.717312,117.638792 C162.335012,113.819223 166.565169,110.734052 170.739552,107.583031 C172.112068,100.772407 173.056097,93.8890513 173.598996,87.0775796 C174.459681,76.2773633 173.714786,64.0223251 170.503942,52.634548 Z"/><path fill="#683613" d="M168.642393,32.8940899 C133.981272,-6.80734704 73.3596206,-11.1858932 33.2403519,23.114324 C-6.87891678,57.4145412 -11.3036482,117.404615 23.3574726,157.105946 C58.0186995,196.807277 118.640245,201.185929 158.759726,166.885712 C198.878995,132.5856 203.30362,72.5955268 168.642393,32.8940899 Z M179.861631,99.9317181 C177.051493,102.757727 173.911269,105.188959 170.739658,107.583137 C168.684701,117.78076 165.642559,127.810795 161.335208,137.153119 C158.88665,142.463928 155.844084,147.486568 152.291277,152.154872 C151.936379,158.025928 151.020873,163.776191 148.362471,168.81884 C143.697995,177.666342 130.851758,179.967676 121.929449,177.425284 C121.808781,177.390877 121.695854,177.348636 121.576458,177.312641 C109.5539,183.261934 95.8654277,186.71838 81.3022728,186.916245 C72.8897798,187.030369 65.0351366,184.518467 61.8676613,176.677546 C58.678873,168.783798 58.9831932,160.099119 58.9221171,151.478171 C52.5182438,151.436248 46.106948,151.30529 39.8121846,149.737932 C33.170899,148.084292 26.7204764,145.085297 21.8160429,140.332617 C12.356137,131.165397 10.1001379,117.263812 10.5237474,104.765703 C9.55639077,104.234252 8.66643963,103.590158 7.89238467,102.796263 C6.1504429,101.009972 5.19029664,98.6570815 4.70296012,96.2786773 C2.44006876,85.2645043 6.88218992,74.029493 13.5775533,64.9300273 C13.8282198,60.5170745 14.3504419,56.1373638 15.7234881,51.8614026 C19.7025548,39.4686316 30.9422569,33.8541961 42.2601069,29.2074893 C42.8863492,28.9503388 43.5147121,28.6964701 44.1447717,28.4458833 C50.6824611,25.846641 57.4266005,23.6195205 64.301693,21.9796433 C77.3210854,13.8599752 91.3677442,8.09954933 107.123262,7.98993351 C123.294436,7.88093433 139.588611,13.0648094 152.242289,23.1226875 C161.470297,30.4576707 167.251851,41.1013099 170.503836,52.6346539 C173.08918,54.9427625 175.576759,57.3888155 177.938793,60.0141012 C183.001537,65.6410289 187.431676,72.6254871 188.308479,80.2560505 C188.893156,85.344222 187.334442,89.9672146 184.68113,94.0561091 C183.316673,96.1590478 181.662528,98.1207602 179.861631,99.9317181 Z"/></g></svg>